<?xml version="1.0" standalone="no"?>
<!DOCTYPE svg PUBLIC "-//W3C//DTD SVG 20010904//EN"
 "http://www.w3.org/TR/2001/REC-SVG-20010904/DTD/svg10.dtd">
<svg version="1.0" xmlns="http://www.w3.org/2000/svg"
 width="539.000000pt" height="527.000000pt" viewBox="0 0 539.000000 527.000000"
 preserveAspectRatio="xMidYMid meet">

<g transform="translate(0.000000,527.000000) scale(0.100000,-0.100000)"
fill="#000000" stroke="none">
<path d="M2793 4805 c-94 -63 -119 -119 -173 -388 -49 -242 -84 -359 -154
-516 -114 -253 -255 -379 -576 -514 -47 -19 -130 -54 -185 -78 -266 -111 -443
-207 -591 -320 -208 -159 -304 -253 -432 -424 -74 -99 -170 -282 -205 -390
-85 -265 -73 -540 33 -799 90 -221 200 -345 446 -506 85 -55 331 -182 385
-199 19 -5 86 -28 149 -49 141 -48 477 -117 660 -134 87 -8 282 -13 550 -12
394 1 425 2 610 28 574 80 809 163 1120 398 85 64 218 190 271 258 43 54 139
203 158 245 23 51 91 257 107 325 24 104 25 106 30 231 9 181 -22 311 -125
520 -80 163 -215 317 -381 433 -145 103 -228 144 -421 211 -204 69 -471 192
-579 265 -93 63 -159 150 -198 261 -19 52 -40 109 -48 127 -21 48 -121 461
-138 572 -43 269 -98 426 -161 461 -60 34 -95 32 -152 -6z m14 -62 c-5 -8 -11
-810 -8 -1073 1 -99 -2 -156 -9 -158 -5 -2 -10 -29 -10 -60 0 -76 -22 -262
-31 -262 -4 0 -10 -37 -14 -81 -5 -56 -10 -77 -17 -68 -7 10 -7 7 -3 -8 3 -13
0 -49 -9 -81 -8 -33 -12 -76 -9 -100 7 -52 -33 -173 -59 -180 -11 -2 -18 -14
-18 -28 0 -14 -6 -24 -14 -24 -10 0 -14 -10 -12 -35 3 -28 0 -35 -15 -35 -15
0 -19 -8 -19 -40 0 -22 -4 -40 -10 -40 -22 0 -8 -45 23 -72 l32 -29 -36 26
c-71 50 -142 67 -264 63 -97 -3 -117 -7 -170 -33 -78 -40 -159 -119 -193 -192
-25 -55 -27 -66 -26 -193 1 -124 3 -140 28 -195 15 -33 37 -71 50 -85 12 -14
29 -34 37 -45 13 -19 13 -19 -6 -5 -11 8 -30 23 -43 34 l-22 19 0 -26 c0 -19
5 -27 18 -28 16 -1 16 -2 0 -6 -10 -2 -18 -11 -18 -19 0 -8 -9 -14 -20 -14
-11 0 -20 7 -20 15 0 13 -6 11 -30 -7 -17 -12 -30 -30 -30 -41 0 -13 -5 -17
-16 -13 -11 4 -18 -1 -21 -14 -3 -13 -14 -20 -29 -20 -13 0 -24 -6 -24 -13 0
-7 -33 -20 -82 -31 -46 -10 -86 -22 -89 -27 -13 -22 -367 -53 -381 -34 -4 5
-33 12 -65 16 -86 10 -273 79 -273 101 0 4 -12 8 -28 8 -20 0 -41 14 -80 54
-28 30 -52 62 -52 70 0 9 -7 16 -16 16 -9 0 -18 9 -21 20 -3 11 -12 20 -20 20
-8 0 -13 6 -10 13 9 26 -13 47 -50 47 -28 0 -34 -3 -25 -12 8 -8 8 -17 0 -31
-17 -32 -22 -178 -8 -236 17 -70 87 -211 148 -294 104 -143 326 -312 537 -407
96 -44 208 -90 218 -90 5 0 23 -6 40 -14 18 -8 43 -17 57 -21 304 -80 329 -84
775 -125 140 -13 505 -13 700 0 308 21 568 67 760 136 39 14 84 29 100 34 167
44 342 147 435 254 14 16 20 27 15 23 -6 -3 -17 -2 -24 3 -8 5 -31 2 -54 -6
-83 -29 -167 -12 -167 34 0 17 56 105 113 177 89 112 165 245 218 383 12 31
30 80 41 107 10 28 32 90 49 139 31 92 63 145 89 145 29 1 60 -35 81 -94 19
-53 21 -75 16 -190 -6 -164 -31 -242 -132 -420 -18 -33 -37 -73 -41 -90 -3
-16 -11 -37 -18 -45 -6 -8 17 7 51 33 63 48 133 125 133 146 0 6 4 11 8 11 9
0 71 138 92 205 7 22 16 49 21 60 18 46 42 197 46 295 8 172 -49 398 -133 532
-13 21 -24 42 -24 48 0 5 -4 10 -8 10 -5 0 -18 17 -30 38 -39 66 -150 175
-277 270 -38 29 -76 57 -83 63 -39 31 -179 109 -234 129 -84 31 -97 44 -19 19
131 -40 220 -83 346 -166 149 -98 288 -230 360 -343 56 -86 127 -252 155 -363
41 -167 19 -396 -61 -632 -48 -140 -63 -171 -135 -279 -85 -130 -293 -341
-380 -386 -16 -8 -50 -31 -76 -52 -62 -48 -227 -127 -356 -172 -200 -69 -563
-130 -932 -156 -280 -20 -893 3 -1060 40 -25 5 -99 21 -165 35 -179 39 -254
61 -362 104 -253 102 -410 190 -584 327 -130 103 -208 213 -275 386 -136 350
-84 737 143 1083 49 74 106 140 222 255 256 255 434 361 1006 600 227 95 381
202 481 335 96 128 210 415 250 633 45 249 79 357 127 410 19 20 44 31 34 15z
m651 -2304 c84 -42 144 -111 173 -201 19 -59 21 -82 15 -155 -7 -97 -27 -149
-80 -210 -92 -105 -311 -155 -431 -98 -56 27 -143 120 -173 184 -23 49 -24 62
-19 151 7 131 42 208 122 270 83 64 154 89 251 90 70 0 89 -4 142 -31z m-977
-56 c93 -43 171 -161 191 -291 33 -226 -136 -421 -367 -423 -117 -1 -197 36
-268 124 -62 76 -87 149 -87 258 0 163 86 289 237 345 56 21 235 13 294 -13z
m-566 -853 c-11 -5 -31 -8 -45 -8 l-25 0 25 8 c14 4 34 8 45 8 l20 1 -20 -9z
m-75 -14 c0 -2 -9 -6 -20 -9 -11 -3 -18 -1 -14 4 5 9 34 13 34 5z m1895 -18
c50 -26 65 -50 65 -104 0 -51 -2 -54 -54 -101 -119 -105 -393 -245 -563 -287
-166 -41 -339 -59 -490 -52 -267 12 -612 113 -744 217 -35 27 -36 31 -29 66
15 63 39 86 125 115 71 24 82 25 110 13 175 -78 231 -100 309 -120 186 -49
331 -55 522 -20 158 28 376 123 479 209 80 66 125 85 192 79 32 -2 67 -9 78
-15z"/>
<path d="M3214 2240 c-33 -13 -82 -77 -90 -115 -8 -43 1 -90 22 -123 38 -58
175 -82 229 -40 81 63 68 203 -24 265 -35 24 -96 30 -137 13z"/>
<path d="M2250 2162 c-61 -30 -101 -115 -86 -179 4 -14 22 -41 40 -59 41 -41
125 -56 173 -30 84 43 108 133 57 213 -45 68 -116 90 -184 55z"/>
</g>
</svg>
